<svg width="522" height="175" viewBox="0 0 522 175" fill="none" xmlns="http://www.w3.org/2000/svg">
<path d="M69.3324 33.6187C72.3697 35.8309 74.6694 38.1026 76.1999 41.5285C77.5285 44.0698 79.3288 44.951 81.8094 46.2109C89.6608 50.2104 95.6673 56.6794 100.266 64.012C100.426 64.2667 100.586 64.5214 100.751 64.7839C108.122 76.7785 109.672 91.2443 106.44 104.757C104.139 113.705 99.4807 121.598 93.0327 128.235C92.6904 128.59 92.3482 128.945 91.9956 129.311C91.6358 129.649 91.276 129.986 90.9053 130.334C90.625 130.604 90.3448 130.873 90.056 131.151C83.491 137.255 75.7436 141.078 67.0788 143.347C66.3318 143.549 66.3318 143.549 65.5697 143.755C57.7977 145.524 48.8221 145.425 41.1249 143.347C40.8543 143.277 40.5838 143.207 40.3051 143.135C33.6713 141.399 27.5081 138.554 21.9786 134.532C21.4446 134.145 21.4446 134.145 20.8999 133.751C9.75051 125.314 2.50628 112.761 0.452991 99.0672C-1.27048 84.4277 2.39662 70.0986 11.5923 58.4508C16.6339 52.2773 22.5571 47.6044 29.6371 43.8635C29.9179 43.8635 30.1987 43.8635 30.488 43.8635C30.6509 43.3107 30.6509 43.3107 30.8171 42.7468C32.7574 37.5344 37.4839 33.6789 42.4013 31.2706C51.3721 27.8012 61.2687 28.0985 69.3324 33.6187ZM37.5349 41.3433C35.2341 44.2545 33.8557 47.3318 33.4664 50.9994C33.4137 51.4499 33.4137 51.4499 33.36 51.9094C33.0803 56.6427 35.4922 61.2131 37.6945 65.2713C38.0578 65.9483 38.0578 65.9483 38.4284 66.639C42.4409 74.025 47.047 80.8556 52.1872 87.5186C52.6131 88.078 53.0387 88.6376 53.4636 89.1976C54.8182 88.6262 55.524 88.0531 56.3771 86.8742C56.5971 86.5728 56.8172 86.2713 57.0439 85.9608C57.2752 85.6351 57.5066 85.3094 57.7449 84.9738C57.9881 84.6359 58.2312 84.298 58.4817 83.9499C70.3249 68.3523 70.3249 68.3523 74.0725 50.0287C73.2153 45.1488 70.8203 41.1196 66.8394 38.1442C57.9057 32.1804 44.8757 33.5614 37.5349 41.3433ZM17.6889 59.4258C9.60014 67.9411 5.52365 79.6111 5.25214 91.1653C5.27963 91.9094 5.32626 92.6529 5.3851 93.3952C5.40546 93.6659 5.42582 93.9365 5.4468 94.2153C6.51029 107.532 12.222 119.291 22.404 128.235C29.4609 133.918 37.9695 138.069 47.0815 139.149C47.4638 139.195 47.8461 139.241 48.2399 139.289C49.4137 139.411 50.5837 139.499 51.7617 139.569C52.0985 139.592 52.4352 139.614 52.7822 139.638C65.6281 140.078 77.8827 135.012 87.2356 126.528C93.7467 120.444 98.3226 112.833 100.691 104.309C100.827 103.827 100.963 103.345 101.103 102.848C102.857 95.3759 102.914 86.4892 100.691 79.1234C100.546 78.6164 100.402 78.1094 100.252 77.587C98.3526 71.4639 95.5091 65.9935 91.3308 61.0737C90.7919 60.4389 90.7919 60.4389 90.2421 59.7914C88.2418 57.5095 86.1158 55.4998 83.6988 53.6491C83.4675 53.4719 83.2362 53.2946 82.9979 53.1119C81.8399 52.2595 80.8635 51.622 79.4175 51.4192C79.4153 52.3916 79.4153 52.3916 79.843 53.518C80.7692 54.3484 81.6536 55.0568 82.6617 55.7742C83.2106 56.1834 83.7586 56.5938 84.3055 57.0056C84.5669 57.2014 84.8283 57.3972 85.0976 57.5989C93.5358 64.0465 98.4881 75.308 100.266 85.4198C101.737 97.7529 98.5922 109.913 90.9319 119.84C87.3247 124.208 83.4391 127.797 78.5666 130.754C78.3254 130.902 78.0843 131.049 77.8359 131.202C67.381 137.478 54.646 138.991 42.8268 136.211C35.3364 134.279 28.0061 130.916 22.527 125.394C21.6782 124.36 21.6782 124.36 20.7021 124.458C20.5936 124.215 20.485 123.972 20.3731 123.721C19.7985 122.683 19.1399 121.977 18.3089 121.126C10.675 112.789 6.89302 100.798 7.45139 89.6768C8.31916 76.9049 13.4986 65.5938 23.2816 56.981C24.6908 55.7893 26.1801 54.7484 27.7358 53.7508C28.4793 53.1106 28.4793 53.1106 28.4537 51.9734C28.4077 51.4913 28.4077 51.4913 28.3607 50.9994C25.3318 50.9994 19.6446 57.5036 17.6889 59.4258ZM24.5314 62.3329C17.009 70.3925 12.4185 80.368 12.4852 91.4014C12.4876 91.8227 12.49 92.2439 12.4925 92.678C12.6826 104.247 17.8898 114.037 26.1818 122.047C35.1268 130.075 46.3568 132.432 58.1098 132.088C61.0763 131.918 63.8426 131.257 66.6533 130.334C66.9259 130.246 67.1986 130.159 67.4795 130.068C73.6021 128.036 78.6188 124.685 83.2468 120.26C83.5018 120.039 83.7568 119.818 84.0196 119.591C89.9951 114.229 93.3372 106.121 94.7346 98.4324C94.8124 98.0428 94.8903 97.6532 94.9706 97.2518C96.4945 86.4897 93.3985 75.8496 87.1026 67.0585C83.4197 62.3387 83.4197 62.3387 78.5666 58.9749C78.0071 60.2075 77.4491 61.4407 76.8913 62.674C76.7325 63.0238 76.5737 63.3736 76.4101 63.7341C76.2579 64.0709 76.1057 64.4077 75.9489 64.7548C75.7383 65.2197 75.7383 65.2197 75.5235 65.694C75.1235 66.5904 75.1235 66.5904 74.7373 67.7898C75.0357 68.0598 75.334 68.3298 75.6414 68.608C82.2488 74.8167 85.6049 82.4028 85.9326 91.4276C85.7124 100.231 82.29 107.832 76.3328 114.305C69.7405 120.349 61.0075 123.197 52.119 122.921C43.3993 122.439 35.813 118.609 29.7966 112.442C23.9523 105.769 21.5233 97.6268 21.9061 88.8799C22.452 81.7904 26.0121 74.411 31.3124 69.6263C31.5707 69.4131 31.829 69.1999 32.0952 68.9802C32.7261 68.2073 32.7261 68.2073 32.5788 67.0815C32.0982 65.3631 31.4234 63.7944 30.6742 62.1755C30.5341 61.8666 30.3939 61.5576 30.2495 61.2393C29.9062 60.4833 29.5593 59.7289 29.2116 58.9749C27.6821 58.9749 25.6034 61.3859 24.5314 62.3329ZM35.1682 72.827C32.3499 75.652 30.3212 78.8362 28.7861 82.4815C28.6413 82.8229 28.4966 83.1643 28.3474 83.5161C26.0934 90.0327 27.2551 97.3993 30.1157 103.47C33.4347 109.912 38.7448 114.471 45.6555 116.874C53.1502 119.088 60.5677 118.169 67.4627 114.58C73.6498 110.95 77.8473 105.515 79.9743 98.7488C81.7723 91.6835 80.7058 84.823 77.3117 78.4199C75.9952 76.3146 74.3923 74.5575 72.6099 72.827C72.1887 73.2425 71.7675 73.6581 71.3335 74.0862C71.6845 74.5018 72.0355 74.9174 72.3972 75.3455C73.707 77.0685 74.7127 78.8863 75.6946 80.8024C75.9122 81.2204 75.9122 81.2204 76.1342 81.6469C78.7222 86.8142 79.1877 93.4913 77.3333 98.9882C74.3743 106.079 70.3842 111.078 63.1116 114.139C56.5915 116.375 49.727 116.27 43.4161 113.371C40.9197 112.154 38.8993 110.792 36.8701 108.926C36.5893 108.926 36.3085 108.926 36.0192 108.926C35.9035 108.68 35.7877 108.434 35.6685 108.18C35.178 107.265 34.6345 106.551 33.9716 105.752C30.2565 100.949 28.8965 95.1029 29.3014 89.1337C30.1367 83.2169 33.0573 78.6002 36.8701 74.0862C36.5893 73.6707 36.3085 73.2551 36.0192 72.827C35.7384 72.827 35.4576 72.827 35.1682 72.827ZM39.423 78.7036C35.5344 83.2817 34.393 87.916 34.7428 93.815C35.416 99.043 37.7925 103.494 41.9758 106.828C46.4085 110.05 51.409 111.168 56.8674 110.605C62.1467 109.577 66.9807 107.084 70.0571 102.63C73.2635 97.3357 74.2478 92.3153 72.7146 86.2495C71.8369 83.6626 70.5993 81.1995 68.7807 79.1234C68.4998 79.1234 68.219 79.1234 67.9297 79.1234C67.1766 80.1242 66.471 81.1277 65.7758 82.1666C65.3516 82.7875 64.9267 83.4079 64.501 84.0277C64.2894 84.336 64.0777 84.6444 63.8597 84.9621C62.4515 86.9871 60.9437 88.935 59.4202 90.8767C59.0857 91.3128 58.7511 91.7489 58.4064 92.1983C58.0741 92.6192 57.7417 93.0402 57.3992 93.4739C57.1031 93.8522 56.8069 94.2304 56.5018 94.6201C55.4582 95.6215 54.9104 95.8725 53.4636 95.9138C48.2863 92.5427 44.6967 86.0395 41.208 81.0955C40.6299 80.2852 40.0341 79.4899 39.423 78.7036Z" fill="#3C3C3C"/>
<path d="M141 6.32674C153.155 6.23741 153.155 6.23741 165.555 6.14628C168.094 6.11999 170.634 6.09371 173.25 6.06662C175.289 6.05818 177.328 6.05082 179.367 6.04477C180.404 6.03 181.442 6.01522 182.511 6.00001C192.249 5.99667 200.666 7.6353 208.021 14.504C212.756 19.502 213.977 24.2767 214.13 31.0993C213.786 38.9832 211.087 44.0743 205.708 49.6382C205.023 50.2735 204.338 50.9087 203.632 51.5632C204.114 51.8324 204.596 52.1017 205.093 52.379C211.264 56.0241 215.61 59.7685 218.282 66.6019C219.547 73.4687 219.363 81.431 215.91 87.596C210.516 94.9837 203.829 98.0092 195.092 99.6871C190.8 100.04 186.543 100.026 182.24 99.9691C181.187 99.9662 180.134 99.9632 179.049 99.9602C175.164 99.9453 171.279 99.905 167.393 99.8675C154.329 99.7782 154.329 99.7782 141 99.6871C141 68.8782 141 38.0693 141 6.32674ZM151.439 15.9515C151.439 26.4329 151.439 36.9143 151.439 47.7133C156.131 47.78 160.821 47.8374 165.514 47.8719C167.106 47.8863 168.698 47.9059 170.29 47.9311C184.636 48.2393 184.636 48.2393 197.879 43.1415C200.877 39.8246 202.502 36.661 202.843 32.1144C202.617 27.1354 201.153 24.0481 197.994 20.2902C192.309 16.067 186.4 15.5382 179.611 15.6695C178.395 15.6757 178.395 15.6757 177.155 15.6819C174.593 15.698 172.031 15.7342 169.469 15.7711C167.721 15.7856 165.972 15.7987 164.224 15.8105C159.962 15.8397 155.701 15.8963 151.439 15.9515ZM151.439 57.3381C151.439 68.4547 151.439 79.5713 151.439 91.0248C158.867 91.0546 158.867 91.0546 166.444 91.0849C167.984 91.0937 169.524 91.1025 171.111 91.1115C188.279 91.8802 188.279 91.8802 203.284 84.7762C206.773 80.7121 207.779 77.259 207.692 71.8955C207.067 67.045 204.633 63.9665 201.023 60.8872C194.499 57.4519 188.292 57.062 181.094 57.1501C179.815 57.1542 179.815 57.1542 178.51 57.1583C175.812 57.169 173.115 57.1932 170.418 57.2178C168.578 57.2274 166.739 57.2362 164.899 57.2441C160.412 57.2635 155.926 57.3012 151.439 57.3381Z" fill="#3C3C3C"/>
<path d="M507.611 0C511.039 0 514.468 0 518 0C518 32.8759 518 65.7517 518 99.6238C514.572 99.6238 511.143 99.6238 507.611 99.6238C507.299 96.432 506.988 93.2401 506.666 89.9516C505.634 90.9889 504.602 92.0263 503.538 93.0951C495.912 99.8259 487.914 101.27 478.004 100.961C468.843 99.978 461.193 96.0602 454.987 89.0977C447.771 79.8609 446.469 69.5759 447.165 58.0333C448.633 48.33 452.929 40.2797 460.458 34.1248C469.51 27.9574 479.781 26.696 490.411 28.4952C496.997 30.27 501.89 33.7969 506.666 38.6889C506.978 25.9215 507.29 13.1542 507.611 0ZM464.918 45.4027C459.03 52.3114 457.709 58.9798 458.049 68.0682C459.077 76.0802 462.66 81.671 468.792 86.657C474.384 90.489 480.142 91.9477 486.833 90.9188C494.889 88.5176 500.416 84.9738 504.711 77.5175C508.539 69.6624 508.324 61.7885 505.685 53.6052C502.746 46.0197 497.783 42.1092 490.611 38.6889C480.823 36.1981 472.19 38.2385 464.918 45.4027Z" fill="#3C3C3C"/>
<path d="M330.9 33.4339C335.884 37.1028 337.936 41.8289 339.577 47.6417C340.06 51.7614 340.033 55.818 339.957 59.9607C339.951 61.1016 339.946 62.2425 339.94 63.418C339.919 67.0296 339.87 70.6401 339.82 74.2514C339.8 76.7134 339.783 79.1755 339.767 81.6375C339.724 87.6444 339.657 93.6505 339.577 99.657C336.042 99.657 332.507 99.657 328.864 99.657C328.382 96.3193 328.382 96.3193 327.891 92.9142C327.107 93.6493 326.324 94.3844 325.517 95.1418C317.447 101.631 307.616 101.375 297.702 100.62C292.197 99.4903 286.261 96.8435 282.878 92.2671C279.239 86.2289 278.186 80.4858 279.614 73.5666C281.306 68.2078 284.132 65.0089 288.938 62.0904C297.382 58.6973 305.957 58.8513 314.927 59.0201C316.285 59.0346 317.644 59.0478 319.003 59.0596C322.29 59.0933 325.577 59.1407 328.864 59.2007C328.584 57.5038 328.294 55.8084 328.001 54.1135C327.841 53.1692 327.68 52.2249 327.515 51.252C326.471 46.6326 324.419 43.8275 320.587 41.0796C312.19 37.1345 303.281 38.9769 294.781 41.8623C292.553 43.0302 290.523 44.277 288.474 45.7265C286.99 46.6785 286.99 46.6785 285.042 46.6785C281.147 40.297 281.147 40.297 281.147 37.046C296.373 28.0383 314.814 23.9174 330.9 33.4339ZM292.414 72.3152C290.305 75.3261 289.911 77.29 289.911 80.9941C291.163 85.1714 292.526 87.8051 296.462 89.9982C303.741 93.0816 310.805 92.7054 318.149 90.0019C321.105 88.577 322.905 86.7532 324.969 84.245C325.712 83.4106 326.455 82.5762 327.221 81.7165C328.958 78.2812 329.043 76.716 328.967 72.9645C328.945 71.5334 328.945 71.5334 328.922 70.0734C328.903 69.3462 328.884 68.6191 328.864 67.8699C324.482 67.7854 320.1 67.7344 315.718 67.6893C314.483 67.6651 313.247 67.6408 311.975 67.6159C301.289 67.2279 301.289 67.2279 292.414 72.3152Z" fill="#3C3C3C"/>
<path d="M419.791 33.7416C424.824 37.8042 427.596 43.8569 428.893 50.1143C428.973 51.7201 429.004 53.3287 429 54.9364C429 56.3741 429 56.3741 428.999 57.8408C428.995 58.8688 428.99 59.8969 428.985 60.9561C428.983 62.0136 428.982 63.0712 428.981 64.1608C428.975 67.5379 428.964 70.9148 428.952 74.2919C428.947 76.5818 428.943 78.8716 428.939 81.1615C428.929 86.7744 428.912 92.3872 428.893 98C425.482 98 422.071 98 418.557 98C418.544 96.7359 418.53 95.4717 418.516 94.1693C418.461 89.4496 418.389 84.7303 418.311 80.011C418.28 77.974 418.253 75.9368 418.232 73.8997C418.2 70.9602 418.151 68.0214 418.099 65.0823C418.093 64.1811 418.087 63.28 418.08 62.3515C417.943 55.9666 417.289 49.4806 413.184 44.334C412.632 43.9176 412.079 43.5013 411.51 43.0723C410.958 42.6366 410.406 42.2009 409.837 41.7519C404.474 38.3415 396.094 38.9574 390.087 40.2518C384.646 42.3854 380.547 46.7551 378.154 51.9922C375.597 61.3675 375.86 71.1686 375.688 80.8057C375.652 82.4776 375.615 84.1495 375.578 85.8213C375.489 89.8808 375.409 93.9403 375.336 98C371.925 98 368.514 98 365 98C365 75.3811 365 52.7621 365 29.4577C368.411 29.4577 371.822 29.4577 375.336 29.4577C375.646 32.2464 375.956 35.035 376.275 37.9082C377.225 37.0367 378.174 36.1653 379.153 35.2674C390.195 25.8159 407.843 25.8787 419.791 33.7416Z" fill="#3C3C3C"/>
<path d="M274 28.0792C274 31.5091 274 34.939 274 38.4729C272.42 38.7067 270.839 38.9406 269.211 39.1815C263.236 40.2785 259.271 41.91 254.845 46.209C250.745 52.7907 249.922 59.4698 249.867 67.0886C249.85 67.9783 249.833 68.8681 249.816 69.7849C249.765 72.5954 249.733 75.4058 249.701 78.2167C249.67 80.1354 249.637 82.054 249.603 83.9727C249.523 88.6483 249.46 93.324 249.405 98C245.972 98 242.538 98 239 98C239 75.238 239 52.4759 239 29.0241C242.434 29.0241 245.868 29.0241 249.405 29.0241C249.718 31.5186 250.03 34.0131 250.351 36.5831C250.788 36.2068 251.224 35.8304 251.674 35.4426C258.408 29.9793 265.313 27.5134 274 28.0792Z" fill="#3C3C3C"/>
<path d="M227.056 129.173C228.43 129.173 229.804 129.173 231.22 129.173C231.335 133.636 231.449 138.099 231.567 142.697C232.369 142.01 233.17 141.323 233.996 140.616C237.267 138.941 240.957 138.706 244.493 139.619C247.759 140.757 250.565 142.919 252.151 146.019C253.661 149.876 253.698 154.527 252.201 158.397C250.607 161.358 248.112 163.664 244.948 164.802C241.318 165.791 237.327 165.688 233.996 163.849C232.982 163.095 232.126 162.309 231.22 161.421C231.106 162.566 230.991 163.71 230.873 164.889C229.614 164.889 228.354 164.889 227.056 164.889C227.056 153.103 227.056 141.316 227.056 129.173ZM233.107 145.832C231.058 148.62 230.808 151.419 231.22 154.833C232.034 157.655 233.863 159.695 236.417 161.107C238.955 162.198 241.484 162.022 244.036 161.064C246.637 159.845 248.036 157.619 249.026 155.028C249.681 151.634 249.048 148.884 247.312 145.882C245.122 143.866 242.682 142.546 239.667 142.602C237.096 142.902 234.822 143.876 233.107 145.832Z" fill="#3C3C3C"/>
<path d="M452.259 129.173C453.519 129.173 454.778 129.173 456.076 129.173C456.191 136.84 456.305 144.507 456.423 152.406C457.339 151.49 458.255 150.575 459.199 149.632C459.837 149.072 460.476 148.513 461.12 147.96C462.294 146.922 463.434 145.849 464.578 144.777C466.194 143.262 467.817 141.76 469.498 140.317C469.947 139.94 469.947 139.94 470.303 139.576C471.181 139.55 472.05 139.544 472.927 139.554C473.297 139.556 473.297 139.556 473.675 139.559C474.286 139.563 474.897 139.569 475.508 139.576C474.17 141.21 472.742 142.734 471.257 144.235C471.073 144.424 470.888 144.613 470.698 144.807C470.233 145.273 469.749 145.721 469.262 146.164C469.033 146.164 468.804 146.164 468.568 146.164C468.568 146.393 468.568 146.622 468.568 146.858C467.885 147.503 467.161 148.083 466.433 148.677C465.706 149.271 465.706 149.271 465.445 150.325C466.025 151.275 466.025 151.275 466.876 152.297C467.032 152.493 467.187 152.689 467.347 152.891C467.865 153.542 468.389 154.188 468.915 154.833C469.099 155.06 469.284 155.286 469.473 155.519C470.237 156.458 471.002 157.396 471.768 158.333C476.549 164.194 476.549 164.194 476.549 164.889C474.796 165.187 473.067 165.413 471.344 164.889C469.948 163.699 469.041 162.311 468.043 160.785C467.093 159.403 466.001 158.134 464.925 156.849C464.716 156.595 464.508 156.342 464.293 156.081C463.439 155.044 462.592 154.037 461.628 153.099C458.227 155.448 458.227 155.448 456.142 158.864C455.843 160.879 455.915 162.864 456.076 164.889C454.816 164.889 453.557 164.889 452.259 164.889C452.259 153.103 452.259 141.316 452.259 129.173Z" fill="#3C3C3C"/>
<path d="M496.783 140.919C499.559 143.113 501.697 145.734 502.227 149.285C502.227 150.658 502.227 152.031 502.227 153.446C495.356 153.446 488.486 153.446 481.407 153.446C482.621 157.493 482.621 157.493 485.591 160.155C488.26 161.562 490.965 161.799 493.877 161.031C495.723 160.439 497.213 159.452 498.757 158.301C499.106 158.689 499.453 159.079 499.798 159.471C499.991 159.688 500.184 159.905 500.384 160.129C500.839 160.728 500.839 160.728 500.839 161.421C497.303 164.585 493.98 165.493 489.332 165.333C485.583 165.059 482.669 163.535 480.084 160.815C477.713 157.945 476.941 154.323 477.243 150.672C477.846 146.888 479.112 143.888 482.188 141.505C486.633 138.541 492.095 138.267 496.783 140.919ZM482.654 146.266C481.87 147.486 481.87 147.486 481.407 150.325C487.018 150.325 492.629 150.325 498.41 150.325C497.99 147.805 497.185 146.123 495.198 144.474C490.786 141.447 486.203 142.348 482.654 146.266Z" fill="#3C3C3C"/>
<path d="M413.851 140.854C415.998 142.701 416.777 144.813 417.212 147.551C417.299 148.918 417.293 150.279 417.28 151.649C417.279 152.029 417.278 152.409 417.277 152.801C417.273 154.006 417.264 155.211 417.255 156.415C417.252 157.236 417.249 158.057 417.246 158.878C417.238 160.882 417.226 162.885 417.212 164.889C415.952 164.889 414.693 164.889 413.395 164.889C413.223 163.687 413.223 163.687 413.048 162.462C412.833 162.662 412.619 162.862 412.397 163.069C409.19 165.376 405.791 165.695 401.944 165.236C399.801 164.713 397.825 163.454 396.392 161.768C395.242 159.524 395.334 156.703 396.067 154.335C397.934 151.867 399.938 150.755 402.985 150.325C403.786 150.298 404.588 150.288 405.39 150.291C405.837 150.292 406.284 150.294 406.745 150.295C407.212 150.298 407.68 150.301 408.147 150.304C408.622 150.305 409.097 150.307 409.573 150.308C410.731 150.312 411.89 150.318 413.048 150.325C413.005 149.776 412.959 149.226 412.911 148.677C412.886 148.371 412.86 148.065 412.834 147.75C412.624 146.34 412.176 145.572 411.313 144.43C409.026 143.002 406.769 142.729 404.136 143.215C402.194 143.692 400.661 144.321 399.049 145.509C398.764 145.661 398.764 145.661 398.474 145.817C397.433 145.471 397.433 145.471 397.028 144.83C396.853 144.45 396.853 144.45 396.674 144.062C396.555 143.808 396.435 143.553 396.312 143.291C396.224 143.095 396.136 142.899 396.045 142.697C401.278 138.877 407.933 137.842 413.851 140.854ZM400.057 155.245C399.35 156.517 399.204 157.591 399.515 158.994C400.504 160.631 401.477 161.38 403.297 161.952C405.652 162.477 407.771 162.112 409.925 161.075C411.324 160.126 412.41 159.196 413.048 157.607C413.132 156.549 413.132 156.549 413.091 155.44C413.085 155.066 413.079 154.692 413.072 154.307C413.064 154.023 413.056 153.739 413.048 153.446C411.479 153.416 409.911 153.397 408.342 153.381C407.899 153.372 407.456 153.364 406.999 153.355C404.22 153.333 402.198 153.325 400.057 155.245Z" fill="#3C3C3C"/>
<path d="M141 131.254C142.489 131.254 143.977 131.254 145.511 131.254C146.941 134.051 148.264 136.876 149.51 139.759C150.029 140.96 150.551 142.159 151.074 143.358C151.183 143.609 151.293 143.861 151.406 144.12C152.764 147.236 154.147 150.341 155.531 153.446C155.717 153.865 155.717 153.865 155.908 154.292C156.606 155.86 157.304 157.427 158.003 158.994C160.842 152.958 163.551 146.87 166.22 140.757C167.611 137.572 169.023 134.402 170.495 131.254C171.869 131.254 173.243 131.254 174.659 131.254C174.419 132.452 174.251 133.243 173.778 134.305C173.613 134.678 173.613 134.678 173.445 135.059C173.324 135.326 173.204 135.594 173.08 135.87C172.889 136.299 172.889 136.299 172.695 136.738C172.274 137.685 171.851 138.63 171.428 139.576C171.134 140.236 170.84 140.896 170.547 141.555C169.927 142.947 169.307 144.339 168.686 145.73C167.708 147.921 166.735 150.114 165.762 152.307C165.135 153.72 164.508 155.132 163.88 156.545C163.729 156.886 163.578 157.227 163.422 157.579C162.992 158.545 162.563 159.511 162.133 160.477C162.006 160.764 161.878 161.051 161.747 161.347C161.629 161.611 161.512 161.876 161.39 162.149C161.288 162.378 161.187 162.607 161.082 162.843C160.765 163.532 160.424 164.211 160.085 164.889C158.711 164.889 157.337 164.889 155.921 164.889C153.995 161.16 152.281 157.359 150.608 153.511C150.339 152.895 150.07 152.28 149.801 151.664C149.381 150.705 148.962 149.745 148.543 148.786C147.517 146.435 146.485 144.086 145.45 141.739C145.159 141.079 144.869 140.42 144.578 139.76C144.157 138.804 143.735 137.847 143.313 136.891C142.924 136.009 142.535 135.127 142.147 134.244C142.03 133.98 141.913 133.716 141.793 133.444C141 131.64 141 131.64 141 131.254Z" fill="#3C3C3C"/>
<path d="M310.683 139.576C312.057 139.576 313.431 139.576 314.847 139.576C315.749 141.561 316.649 143.546 317.55 145.531C317.855 146.205 318.161 146.878 318.466 147.551C321.397 154.003 321.397 154.003 322.695 156.998C322.858 157.372 323.02 157.746 323.187 158.131C323.522 158.994 323.522 158.994 323.522 159.688C323.751 159.688 323.98 159.688 324.216 159.688C324.274 159.502 324.331 159.316 324.391 159.125C325.05 157.068 325.863 155.122 326.764 153.162C326.907 152.848 327.049 152.535 327.196 152.213C327.647 151.222 328.1 150.232 328.554 149.242C329.007 148.249 329.459 147.256 329.911 146.263C330.192 145.648 330.472 145.033 330.754 144.418C331.488 142.813 332.203 141.202 332.891 139.576C334.265 139.576 335.639 139.576 337.055 139.576C336.602 140.996 336.079 142.348 335.465 143.706C335.287 144.101 335.109 144.496 334.926 144.904C334.732 145.331 334.538 145.758 334.344 146.186C334.142 146.633 333.94 147.081 333.739 147.528C333.319 148.459 332.899 149.389 332.479 150.319C331.877 151.651 331.28 152.984 330.683 154.318C329.572 156.803 328.457 159.286 327.339 161.768C327.159 162.169 326.979 162.57 326.793 162.984C326.276 164.133 325.756 165.28 325.235 166.428C325.082 166.768 324.929 167.109 324.772 167.46C322.724 171.951 322.724 171.951 320.594 173.319C320.209 173.575 320.209 173.575 319.815 173.836C317.582 174.991 314.86 174.886 312.505 174.165C311.238 173.701 310.288 173.099 309.295 172.171C309.751 170.806 310.308 170.012 311.377 169.05C311.796 169.383 311.796 169.383 312.223 169.722C313.599 170.632 314.948 170.846 316.582 170.784C318.493 170.26 319.263 169.062 320.296 167.472C321.262 165.779 321.262 165.779 321.289 163.89C320.992 163.127 320.656 162.396 320.3 161.658C320.109 161.241 320.109 161.241 319.914 160.816C319.496 159.91 319.069 159.008 318.642 158.106C318.354 157.483 318.066 156.86 317.779 156.236C317.2 154.98 316.617 153.725 316.032 152.471C314.95 150.152 313.891 147.824 312.841 145.49C312.553 144.852 312.262 144.216 311.971 143.58C311.799 143.2 311.627 142.821 311.45 142.43C311.301 142.102 311.152 141.775 310.998 141.437C310.683 140.616 310.683 140.616 310.683 139.576Z" fill="#3C3C3C"/>
<path d="M207.624 141.31C207.458 142.773 207.219 143.666 206.236 144.777C205.299 144.59 204.539 144.296 203.655 143.91C200.968 142.779 197.727 142.527 194.937 143.477C193.511 144.186 193.511 144.186 192.703 145.471C192.525 146.688 192.521 147.286 193.224 148.31C195.206 149.746 197.61 150.182 199.968 150.65C205.953 151.92 205.953 151.92 207.971 154.486C208.929 156.537 208.92 158.471 208.296 160.598C206.965 162.915 205.09 164.164 202.564 164.996C197.36 166.048 191.985 165.326 187.498 162.462C187.735 161.092 188.119 160.161 188.886 158.994C190.481 159.33 191.918 160.027 193.407 160.674C196.541 161.892 200.092 161.798 203.249 160.71C203.93 160.391 203.93 160.391 204.154 159.341C204.336 157.65 204.336 157.65 203.612 156.186C202.551 155.359 201.517 155.105 200.229 154.833C199.732 154.717 199.235 154.601 198.738 154.485C198.23 154.37 197.722 154.255 197.214 154.14C190.867 152.678 190.867 152.678 188.908 150.152C188.261 148.024 188.075 145.688 188.856 143.57C190.143 141.359 191.836 140.362 194.265 139.662C198.76 138.651 203.586 138.956 207.624 141.31Z" fill="#3C3C3C"/>
<path d="M349.2 131.254C358.246 131.254 367.293 131.254 376.613 131.254C376.613 132.398 376.613 133.542 376.613 134.721C372.834 134.721 369.055 134.721 365.162 134.721C365.162 144.677 365.162 154.632 365.162 164.889C363.788 164.889 362.414 164.889 360.998 164.889C360.998 154.934 360.998 144.978 360.998 134.721C357.105 134.721 353.211 134.721 349.2 134.721C349.2 133.577 349.2 132.433 349.2 131.254Z" fill="#3C3C3C"/>
<path d="M444.113 141.188C445.365 142.222 446.312 143.15 446.707 144.777C445.905 145.349 445.104 145.921 444.278 146.511C443.257 146.041 442.454 145.491 441.589 144.777C439.355 143.096 437.253 142.824 434.496 143.164C431.951 143.755 430.197 145.023 428.815 147.226C427.534 149.521 427.249 152.037 427.794 154.603C428.486 156.891 429.492 158.883 431.591 160.143C434.449 161.495 436.622 161.839 439.637 160.858C441.383 160.183 442.387 159.377 443.584 157.954C444.784 158.387 445.717 158.882 446.707 159.688C446.231 161.649 444.832 162.744 443.237 163.849C439.882 165.707 435.652 165.8 431.981 164.846C428.737 163.676 426.111 161.532 424.388 158.547C422.859 155.096 422.848 150.426 423.957 146.836C425.3 143.808 427.581 141.546 430.609 140.233C430.883 140.13 431.157 140.028 431.439 139.923C431.663 139.838 431.886 139.754 432.117 139.667C435.981 138.474 440.721 138.974 444.113 141.188Z" fill="#3C3C3C"/>
<path d="M298.191 134.028C299.451 134.028 300.71 134.028 302.008 134.028C302.008 135.859 302.008 137.689 302.008 139.576C304.527 139.576 307.047 139.576 309.642 139.576C309.642 140.606 309.642 141.636 309.642 142.697C307.123 142.697 304.604 142.697 302.008 142.697C302.034 144.875 302.063 147.052 302.099 149.23C302.111 149.97 302.12 150.71 302.128 151.451C302.14 152.517 302.158 153.584 302.178 154.65C302.18 154.979 302.182 155.308 302.184 155.647C302.227 157.597 302.469 159.001 303.396 160.728C304.397 161.58 305.542 161.541 306.83 161.515C308.008 161.364 308.93 160.91 309.989 160.381C310.648 161.412 311.153 162.293 311.377 163.502C308.724 165.37 306.611 165.451 303.396 165.236C301.613 164.839 300.365 163.877 299.232 162.462C298.153 160.165 298.052 158.215 298.09 155.7C298.091 155.327 298.092 154.954 298.094 154.569C298.1 153.385 298.113 152.202 298.126 151.019C298.131 150.213 298.136 149.407 298.14 148.601C298.152 146.633 298.17 144.665 298.191 142.697C296.703 142.697 295.214 142.697 293.68 142.697C293.68 141.667 293.68 140.637 293.68 139.576C295.169 139.576 296.657 139.576 298.191 139.576C298.191 137.745 298.191 135.914 298.191 134.028Z" fill="#3C3C3C"/>
<path d="M393.616 139.229C393.616 140.488 393.616 141.746 393.616 143.043C393.213 143.088 393.213 143.088 392.803 143.134C390.435 143.453 388.482 143.835 386.676 145.471C383.934 149.076 384.454 154.228 384.377 158.539C384.364 159.156 384.35 159.774 384.336 160.391C384.303 161.89 384.274 163.39 384.247 164.889C382.987 164.889 381.728 164.889 380.43 164.889C380.43 156.536 380.43 148.182 380.43 139.576C381.69 139.576 382.949 139.576 384.247 139.576C384.361 140.606 384.476 141.636 384.594 142.697C384.834 142.452 384.834 142.452 385.079 142.202C387.62 139.779 390.143 139.036 393.616 139.229Z" fill="#3C3C3C"/>
<path d="M272.513 129.173C273.773 129.173 275.032 129.173 276.33 129.173C276.33 140.959 276.33 152.746 276.33 164.889C275.071 164.889 273.811 164.889 272.513 164.889C272.513 153.103 272.513 141.316 272.513 129.173Z" fill="#3C3C3C"/>
<path d="M521.659 139.229C521.659 140.488 521.659 141.746 521.659 143.043C521.079 143.129 520.5 143.215 519.902 143.303C517.711 143.706 516.256 144.305 514.632 145.882C513.128 148.298 512.826 150.749 512.807 153.545C512.8 153.871 512.794 154.198 512.788 154.534C512.769 155.566 512.757 156.597 512.746 157.629C512.734 158.333 512.722 159.037 512.71 159.741C512.68 161.457 512.657 163.173 512.637 164.889C511.377 164.889 510.118 164.889 508.82 164.889C508.82 156.536 508.82 148.182 508.82 139.576C510.08 139.576 511.339 139.576 512.637 139.576C512.752 140.491 512.866 141.407 512.984 142.35C513.144 142.212 513.304 142.074 513.469 141.931C515.939 139.926 518.473 139.021 521.659 139.229Z" fill="#3C3C3C"/>
<path d="M214.217 139.576C215.591 139.576 216.965 139.576 218.381 139.576C218.381 147.929 218.381 156.282 218.381 164.889C217.007 164.889 215.633 164.889 214.217 164.889C214.217 156.536 214.217 148.182 214.217 139.576Z" fill="#3C3C3C"/>
<path d="M285.352 139.576C286.612 139.576 287.871 139.576 289.169 139.576C289.169 147.929 289.169 156.282 289.169 164.889C287.909 164.889 286.65 164.889 285.352 164.889C285.352 156.536 285.352 148.182 285.352 139.576Z" fill="#3C3C3C"/>
<path d="M259.674 139.576C260.934 139.576 262.193 139.576 263.491 139.576C263.491 147.929 263.491 156.282 263.491 164.889C262.231 164.889 260.972 164.889 259.674 164.889C259.674 156.536 259.674 148.182 259.674 139.576Z" fill="#3C3C3C"/>
<path d="M178.129 139.576C179.389 139.576 180.648 139.576 181.946 139.576C181.946 147.929 181.946 156.282 181.946 164.889C180.687 164.889 179.427 164.889 178.129 164.889C178.129 156.536 178.129 148.182 178.129 139.576Z" fill="#3C3C3C"/>
<path d="M180.936 129.019C181.599 129.173 181.599 129.173 182.488 129.888C183.138 131.216 183.032 131.924 182.64 133.334C182.271 134.006 182.271 134.006 181.599 134.374C179.242 134.636 179.242 134.636 177.955 133.833C177.232 132.658 177.241 131.915 177.435 130.56C178.322 129.119 179.334 128.929 180.936 129.019Z" fill="#3C3C3C"/>
<path d="M288.475 129.173C289.321 129.715 289.321 129.715 289.863 130.56C290.057 131.915 290.066 132.658 289.343 133.833C288.042 134.645 287.222 134.544 285.699 134.374C284.749 133.823 284.676 133.391 284.355 132.337C284.303 131.045 284.571 130.532 285.352 129.52C286.425 128.984 287.293 129.071 288.475 129.173Z" fill="#3C3C3C"/>
<path d="M262.797 129.173C263.643 129.715 263.643 129.715 264.185 130.56C264.379 131.915 264.388 132.658 263.664 133.833C262.364 134.645 261.544 134.544 260.021 134.374C259.071 133.823 258.997 133.391 258.676 132.337C258.625 131.045 258.893 130.532 259.674 129.52C260.747 128.984 261.615 129.071 262.797 129.173Z" fill="#3C3C3C"/>
<path d="M217.687 129.173C218.555 129.715 218.555 129.715 219.075 130.56C219.269 131.915 219.278 132.658 218.555 133.833C217.503 134.489 216.799 134.598 215.574 134.529C214.911 134.374 214.911 134.374 214.022 133.659C213.372 132.332 213.478 131.623 213.87 130.213C214.662 128.77 216.22 128.914 217.687 129.173Z" fill="#3C3C3C"/>
</svg>
